{"title":"Christmas Everyday (1996) TV Movie","uid":12848381,"size":1254525594,"categoryP":"video","categoryS":"movies","magnet":"?xt=urn:btih:dc83df2cd1299dce23b805517b043ec3e0ece12c&amp;dn=Christmas+Everyday+%281996%29+TV+Movie&amp;tr=udp%3A%2F%2Ftracker.leechers-paradise.org%3A6969&amp;tr=udp%3A%2F%2Fzer0day.ch%3A1337&amp;tr=udp%3A%2F%2Fopen.demonii.com%3A1337&amp;tr=udp%3A%2F%2Ftracker.coppersurfer.tk%3A6969&amp;tr=udp%3A%2F%2Fexodus.desync.com%3A6969","seeders":0,"leechers":0,"uploader":null,"files":1,"time":1448579706,"description":"Christmas Every Day (ABC Family Christmas Movie) \r\n\r\nPLOT:\r\n\r\nBilly Jackson is not having a good Christmas. He got a basketball and just can't make a jump shot. His Uncle David is coming to town to open a Valu-Mall, which will put his Dad's store out of business. When he tells his little sister Sarah that there is no Santa, she makes a wish that it would be Christmas every day. He now has to relive Christmas Day over and over again. \r\n\r\n\r\nFILE INFO:\r\n\r\nFormat : AVI\r\nFormat/Info : Audio Video Interleave\r\nFormat profile : OpenDML\r\nFile size : 1.17 GiB\r\nDuration : 1h 26mn\r\nOverall bit rate : 1 944 Kbps\r\n\r\nVideo\r\nID : 0\r\nFormat : MPEG-4 Visual\r\nFormat profile :   \r\nFormat settings, BVOP : No\r\nFormat settings, QPel : No\r\nFormat settings, GMC : No warppoints\r\nFormat settings, Matrix : Default (H.263)\r\nCodec ID : DX50\r\nCodec ID/Hint : DivX 5\r\nDuration : 1h 26mn\r\nBit rate : 1 799 Kbps\r\nWidth : 720 pixels\r\nHeight : 540 pixels\r\nDisplay aspect ratio : 4:3\r\nFrame rate : 29.970 fps\r\nColor space : YUV\r\nChroma subsampling : 4:2:0\r\nBit depth : 8 bits\r\nScan type : Progressive\r\nCompression mode : Lossy\r\nBits/(Pixel*Frame) : 0.154\r\nStream size : 1.08 GiB (93%)\r\nWriting library : DigiArty AV Encoder Core\r\n\r\nAudio\r\nID : 1\r\nFormat : MPEG Audio\r\nFormat version : Version 1\r\nFormat profile : Layer 3\r\nCodec ID : 55\r\nCodec ID/Hint : MP3\r\nDuration : 1h 26mn\r\nBit rate mode : Constant\r\nBit rate : 128 Kbps\r\nChannel(s) : 2 channels\r\nSampling rate : 48.0 KHz\r\nCompression mode : Lossy\r\nStream size : 78.8 MiB (7%)\r\nAlignment : Aligned on interleaves\r\nInterleave, duration : 24 ms (0.72 video frame)\r\nInterleave, preload duration : 504 ms","torrent":{"xt":"urn:btih:dc83df2cd1299dce23b805517b043ec3e0ece12c","amp;dn":"Christmas+Everyday+%281996%29+TV+Movie","amp;tr":["udp%3A%2F%2Ftracker.leechers-paradise.org%3A6969","udp%3A%2F%2Fzer0day.ch%3A1337","udp%3A%2F%2Fopen.demonii.com%3A1337","udp%3A%2F%2Ftracker.coppersurfer.tk%3A6969","udp%3A%2F%2Fexodus.desync.com%3A6969"],"infoHash":"dc83df2cd1299dce23b805517b043ec3e0ece12c","infoHashBuffer":{"type":"Buffer","data":[220,131,223,44,209,41,157,206,35,184,5,81,123,4,62,195,224,236,225,44]},"announce":[],"urlList":[]}}